<?xml version="1.0" standalone="no"?><svg xmlns="http://www.w3.org/2000/svg" viewBox="0 0 1440 320"><path fill="#ffd700" fill-opacity="0.95" d="M0,256L24,240C48,224,96,192,144,165.3C192,139,240,117,288,133.3C336,149,384,203,432,213.3C480,224,528,192,576,192C624,192,672,224,720,234.7C768,245,816,235,864,224C912,213,960,203,1008,170.7C1056,139,1104,85,1152,101.3C1200,117,1248,203,1296,234.7C1344,267,1392,245,1416,234.7L1440,224L1440,0L1416,0C1392,0,1344,0,1296,0C1248,0,1200,0,1152,0C1104,0,1056,0,1008,0C960,0,912,0,864,0C816,0,768,0,720,0C672,0,624,0,576,0C528,0,480,0,432,0C384,0,336,0,288,0C240,0,192,0,144,0C96,0,48,0,24,0L0,0Z"></path></svg>