<?xml version="1.0" standalone="no"?><svg xmlns="http://www.w3.org/2000/svg" viewBox="0 0 1440 320"><path fill="#ffd700" fill-opacity="0.95" d="M0,256L24,240C48,224,96,192,144,165.3C192,139,240,117,288,133.3C336,149,384,203,432,213.3C480,224,528,192,576,192C624,192,672,224,720,234.7C768,245,816,235,864,224C912,213,960,203,1008,170.7C1056,139,1104,85,1152,101.3C1200,117,1248,203,1296,234.7C1344,267,1392,245,1416,234.7L1440,224L1440,320L1416,320C1392,320,1344,320,1296,320C1248,320,1200,320,1152,320C1104,320,1056,320,1008,320C960,320,912,320,864,320C816,320,768,320,720,320C672,320,624,320,576,320C528,320,480,320,432,320C384,320,336,320,288,320C240,320,192,320,144,320C96,320,48,320,24,320L0,320Z"></path></svg>