<?xml version="1.0" encoding="utf-8"?>
<!-- Generator: Adobe Illustrator 23.0.1, SVG Export Plug-In . SVG Version: 6.00 Build 0)  -->
<svg version="1.1" id="Layer_1" xmlns="http://www.w3.org/2000/svg" xmlns:xlink="http://www.w3.org/1999/xlink" x="0px" y="0px"
	 viewBox="0 0 1400 700" style="enable-background:new 0 0 1400 700;" xml:space="preserve">
<style type="text/css">
	.st0{fill:#FFFFFF;stroke:#000000;stroke-width:0.669;stroke-miterlimit:10;}
	.st1{fill:#FFFFFF;stroke:#000000;stroke-width:0.7154;stroke-miterlimit:10;}
</style>
<path class="st0" d="M761.1,700c0.1,0-761.1,0-761.1,0V0c0,0,59.2,469.7,240.8,432.2c33.7-3.1,83-4.4,92.1,16.6
	c15.4,35.7-100.5,99.6-86.4,137.5c13.2,35.4,114-21.7,244.8,24.5C491.4,610.8,640.6,679.8,761.1,700z"/>
<path class="st1" d="M1399.1,2.2c-59.5,177.8-150,253.9-224.8,290c-63.4,30.7-147.4,48-176.9,114.8c-12.9,29.1-4.1,42-18.2,119.1
	c-12.7,69.7-19.1,104.5-33.1,117.6c-62,58.2-213.8-40.8-415-25.8C421,626,333.5,665.7,275,699.5h1124.5L1399.1,2.2z"/>
</svg>
